<?xml version="1.0" encoding="UTF-8"?>
<svg id="Capa_2" data-name="Capa 2" xmlns="http://www.w3.org/2000/svg" viewBox="0 0 500 523.67">
  <defs>
    <style>
      .cls-1 {
        fill: #fff;
      }
    </style>
  </defs>
  <g id="Capa_1-2" data-name="Capa 1">
    <path class="cls-1" d="M44.85,403.59L0,377.58l.03-231.1,72.66-42.54L226.01,14.29,249.88,0l127.72,74.68,41.17,23.95,81.23,47.96-.04,231.15-136.89,79.81-112.87,66.12-205.36-120.08ZM250.15,477.32l142.14-83.24,66.88-39.37-.09-89.09c-.02-19.14-9.82-36.35-26.22-46.05-9.14-4.87-19.04-7.35-29.45-7.35-3.73,0-7.56.32-11.37.96-29.53,4.94-55.77,26.65-71.98,59.56l-18.69,37.94c-7.92,16.08-17.23,30.36-28.46,43.67-22.75,27.26-52.36,46.89-85.61,56.76-11.65,3.72-23.69,6.21-36.8,7.59l99.64,58.63ZM95.82,382.04c8.78,1.44,17.71,2.16,26.52,2.16h.01c54.37,0,102.78-26.94,129.55-72.07l22.12-40.78c2.7-4.98,5.36-10.06,7.93-14.97,5.66-10.81,11.51-21.98,18.16-32.8,18.72-30.45,46.41-53.08,80.07-65.45,14.21-5.01,27.97-8.37,41.98-10.25-7.25-3.2-15.58-5.44-26.51-7.15-5.65-.68-11.42-1.02-17.15-1.02-15.63,0-31.31,2.45-47.94,7.48-31.12,9.42-57.11,28.14-75.15,54.15-5.62,8.1-10.74,16.68-16.59,27.81l-25.25,48.03c-8.73,16.61-16.11,28.33-24.68,39.18-26.85,34.01-65.01,54.35-111.31,59.6l.81.46c4.51,2.57,9.4,3.73,15.58,5.19l1.85.44ZM61.56,300.69c10.54,7.47,22.53,11.26,35.62,11.26h0c14.14,0,28.72-4.47,42.18-12.93,24.25-15.25,36.85-38.06,45.99-58.36,9.58-21.28,19.6-39.76,30.63-56.51,21.9-32.41,52.88-56.33,89.63-69.26,14.29-5.1,28.74-8.57,43.18-10.37l-98.78-58.2-141.7,83.35-67.58,39.71.32,90.22c.06,15.99,7.33,30.57,20.5,41.07Z"/>
  </g>
</svg>